<svg xmlns="http://www.w3.org/2000/svg" viewBox="0 0 1042 1357"><defs><style>.cls-1{fill:#00387b;}.cls-2{fill:#f1dd38;}.cls-3{fill:none;stroke:#000;stroke-width:12px;}</style></defs><title>Schild - Kleur</title><g id="Kleur_-_Zwavelgeel_Ultramarijnblauw" data-name="Kleur - Zwavelgeel/Ultramarijnblauw"><path class="cls-1" d="M600.25,307.5v1115c284.43,0,515-231.09,515-516.16V307.5Z" transform="translate(-79.25 -71.5)"/><path class="cls-2" d="M599.75,307.5v1115c-284.43,0-515-231.09-515-516.16V307.5Z" transform="translate(-79.25 -71.5)"/><rect class="cls-2" x="6" y="6" width="1030" height="230"/><polygon class="cls-2" points="1036 366 1036 366 521 663.34 521 1009.75 1036 712.41 1036 366"/></g><g id="Inhoud"><g id="Text_in_path" data-name="Text in path"><path d="M153.93,233.55h9.64V155.06h-9.64v-8.15h74v24.58H214V155.74H182.58v34.08h20.64v-9h9.37v26.75h-9.37v-9H182.58v34.9h12.9v8.15H153.93Z" transform="translate(-79.25 -71.5)"/><path d="M236.09,233.55h8.69V183.17l-8.69-1.77v-6.79l26.48-5.43v64.37h8.69v8.15H236.09ZM243,149.22v-.68c0-6.11,3.94-10.32,10.6-10.32s10.59,4.21,10.59,10.32v.68c0,6.11-3.94,10.32-10.59,10.32S243,155.33,243,149.22Z" transform="translate(-79.25 -71.5)"/><path d="M279.27,233.55H288V152.48l-8.7-1.77v-6.79l26.49-5.43v95.06h8.69v8.15H279.27Z" transform="translate(-79.25 -71.5)"/><path d="M324,233.55h8.69V183.17L324,181.4v-6.79l26.48-5.43v64.37h8.7v8.15H324Zm6.93-84.33v-.68c0-6.11,3.94-10.32,10.59-10.32s10.59,4.21,10.59,10.32v.68c0,6.11-3.93,10.32-10.59,10.32S330.88,155.33,330.88,149.22Z" transform="translate(-79.25 -71.5)"/><path d="M368.63,233.55h8.69V183.17l-8.69-1.77v-6.79l26.48-5.43v64.37h8.7v8.15H368.63Zm6.93-84.33v-.68c0-6.11,3.94-10.32,10.59-10.32s10.59,4.21,10.59,10.32v.68c0,6.11-3.93,10.32-10.59,10.32S375.56,155.33,375.56,149.22Z" transform="translate(-79.25 -71.5)"/><path d="M445.36,233.55H455V155.06h-9.64v-8.15H484.2v8.15H474v77.81h28.52V215h14V241.7H445.36Z" transform="translate(-79.25 -71.5)"/><path d="M528.2,223.37c0-13.72,9.92-20.92,31.1-20.92h9.64V193.9c0-11-4.21-16.84-14.53-16.84-4.07,0-7.19.68-9.23,1.76v.55a8.07,8.07,0,0,1,3.94,7.19c0,5.16-3.26,9-9.37,9-5.16,0-9-3.81-9-9.37,0-8.56,10.05-17,28.79-17,18.07,0,27.16,8.69,27.16,23.49v41h8.7v6.79c-2.72,1.76-7.61,2.85-12.36,2.85-9,0-12.77-5-12.77-11.82v-.4h-.68c-2.58,6-7.33,12.22-19.82,12.22C535.27,243.33,528.2,235.86,528.2,223.37Zm40.74-2.18v-11.4H561.2c-10.72,0-15.07,4.07-15.07,11.27v2.44c0,6.11,4.21,9,10.59,9C563.92,232.46,568.94,229.21,568.94,221.19Z" transform="translate(-79.25 -71.5)"/><path d="M604.93,233.55h8.7V183.17l-8.7-1.77v-6.79l26.21-5.43v13.17h.68c2.58-6.79,8.83-13.17,20.1-13.17,11.82,0,18.34,4.62,20.92,13.58h.54c3-6.93,9.64-13.58,21.46-13.58,16.7,0,22.95,8.83,22.95,26.35v38h8.69v8.15H692.12v-8.15H700V196.34c0-10.59-3.67-15.21-12.23-15.21-6.65,0-13.17,3.67-13.17,11.68v40.74h7.88v8.15H648.93v-8.15h7.88V196.34c0-10.59-3.53-15.21-11.95-15.21-6.93,0-13.44,3.67-13.44,11.68v40.74h7.87v8.15H604.93Z" transform="translate(-79.25 -71.5)"/><path d="M759.21,231.11h-.68L750,241.7h-8V152.48l-8.69-1.77v-6.79l26.48-5.43v42.78h.68c2.72-6.39,9.1-12.09,19.29-12.09,17.38,0,28.38,14.26,28.38,37.07s-11,37.08-28.38,37.08C769,243.33,761.93,237.62,759.21,231.11Zm29.88-16.57V198c0-11.14-6.25-17.65-15.21-17.65-7.61,0-14.13,5-14.13,12.9v26.07c0,7.88,6.52,12.9,14.13,12.9C782.84,232.19,789.09,225.67,789.09,214.54Z" transform="translate(-79.25 -71.5)"/><path d="M820.32,206.12c0-22.54,13.31-36.94,32.87-36.94s31.91,13.17,31.91,33v4.21H839.47v4.89c0,13,7.47,20.23,18.47,20.23,10,0,16.16-5.16,19-11.81l6.66,4.07c-3.26,9.1-12.36,19.56-29.34,19.56C832.68,243.33,820.32,228,820.32,206.12Zm19.15-7.61h27.16v-1.76c0-12.9-4.75-19-13.44-19s-13.72,6-13.72,18.87Z" transform="translate(-79.25 -71.5)"/><path d="M896,233.55h8.69V183.17L896,181.4v-6.79l26.21-5.43v13.17h.68c2.44-6.92,8-13.17,17-13.17,8.56,0,14,4.89,14,12.77,0,6.79-3.67,10.86-9.78,10.86s-9.5-3.8-9.5-8.42c0-2.58,1.35-4.75,2.71-5.3v-.54a8.06,8.06,0,0,0-1.9-.13c-6.25,0-12.9,7.46-12.9,13.85v41.28h11.41v8.15H896Z" transform="translate(-79.25 -71.5)"/><path d="M970.25,229.07V179.5h-9.37v-8.69h3c6.38,0,8.28-2.44,10.32-7.33l4.89-11.82h9v19.15h16.3v8.69H988v53.78h16.3v6.93c-2.85,1.35-10.73,2.71-19.15,2.71C974.6,242.92,970.25,238.44,970.25,229.07Z" transform="translate(-79.25 -71.5)"/><path d="M1013.57,233.55h8.69V183.17l-8.69-1.77v-6.79l26.48-5.43v64.37h8.7v8.15h-35.18Zm6.93-84.33v-.68c0-6.11,3.94-10.32,10.59-10.32s10.59,4.21,10.59,10.32v.68c0,6.11-3.93,10.32-10.59,10.32S1020.5,155.33,1020.5,149.22Z" transform="translate(-79.25 -71.5)"/></g><g id="Logo"><polygon points="141.31 886.82 186.6 898.96 186.6 654.25 252.17 654.25 261.27 620.28 186.6 620.28 186.6 518.37 288.58 518.37 297.69 484.4 186.6 484.4 186.6 461.75 141.31 461.75 141.31 484.4 118.66 484.4 118.66 518.37 141.31 518.37 141.31 620.28 118.66 620.28 118.66 654.25 141.31 654.25 141.31 886.82"/><polygon points="306.07 934.35 417.54 518.37 382.37 518.37 261.8 968.32 482.22 968.32 491.32 934.35 306.07 934.35"/><polygon points="461.81 484.4 452.7 518.37 476.15 518.37 491.32 461.75 338.94 461.75 338.92 461.75 210.62 940.57 73.15 903.73 55.84 968.3 79.29 968.3 89.16 931.47 226.64 968.3 356.3 484.4 461.81 484.4"/></g><g id="Monogram"><path d="M806.18,601.4c.53.6.17,3.65-.19,5.43-1.13,5.59-2.43,11.16-3.29,16.8-.92,6-1.4,12.14-2.1,18.42a20.92,20.92,0,0,0,3,.51c9.95.12,19.67,2,29.38,3.89,8.62,1.7,17.24,3.37,26,4.33a112.46,112.46,0,0,0,17.12.41c1.55-.07,1.64.29,3.53-1.9s6.38-7.37,9.57-11a34.65,34.65,0,0,1,16.36-10.42c3.19-1,6.46-1.72,9.73-2.39a16,16,0,0,1,14.65,4.27,29.88,29.88,0,0,1,8.18,12.93,47.87,47.87,0,0,1,2.29,9.3c1,8.53-2.16,15.62-8.54,21.16a16,16,0,0,1-12.51,3.61A38.13,38.13,0,0,1,908.44,674a199.7,199.7,0,0,1-20.07-9.34,24.64,24.64,0,0,0-2.63-1.29c-2.23-.89-3.34-.39-4,2a66.5,66.5,0,0,0-1.69,7.75A145.19,145.19,0,0,0,879,705.67c.64,8.19,1.48,16.37,2.29,24.55,1.39,14,2.93,28,2.7,42.13s-1.71,28.37-5.46,42.18c-.33,1.19-.52,2.41-.81,3.81,1,.08,1.83.22,2.64.2A74.33,74.33,0,0,1,913.68,825c6,2.68,11.89,5.48,17.89,8.09a82.45,82.45,0,0,0,21.95,6.56A31.68,31.68,0,0,0,973.31,836c8.16-4.45,12.26-11.48,12.86-20.66.07-1.11,0-2.24.14-3.34a2.2,2.2,0,0,1,2.36-1.9,2.37,2.37,0,0,1,2.45,1.86,12.73,12.73,0,0,1,0,3.32c-2.61,17.77-14.58,27.23-28.2,30.55a98,98,0,0,1-37.79,1.75,84.17,84.17,0,0,1-22.25-7,132.87,132.87,0,0,0-20-7.35c-2.94-.79-5.92-1.46-9.12-2.24-.54,1.12-1.05,2.06-1.46,3-4.1,9.88-9.41,19-17,26.6a28.94,28.94,0,0,1-12.34,7.56,16.25,16.25,0,0,1-10.27,0c-7.07-2.5-10.82-9.56-9.11-17.15a25.37,25.37,0,0,1,4.15-9.07,41.3,41.3,0,0,1,12.18-11.3,80.37,80.37,0,0,1,22.55-9.74l3.91-1c1-1.35.94-2.77,1.09-4.13,1-8.9.86-17.82.55-26.74-.12-3.48-.24-7-.43-10.45q-.66-12.32-1.41-24.62c-.78-13.08-2.36-26.1-2.19-39.24.21-15.12,1.81-30,6-44.6.66-2.27,1.5-4.49,2.21-6.75a22.81,22.81,0,0,0,.46-2.49,11.91,11.91,0,0,0-1.86-.17c-10.35.79-20.6-.13-30.83-1.66-8-1.19-16-2.51-24-3.54-4.69-.6-9.44-.77-14.17-1.1a15.2,15.2,0,0,0-2.16.21,18.54,18.54,0,0,0-.29,2.16c.07,11.57,0,23.14.3,34.7.27,10,1,20,1.53,30,.15,2.92.25,5.85.26,8.78,0,7.81,0,15.62,0,23.42v4.16c1.16.61,2.14,1.12,3.11,1.65,7.86,4.26,9.53,13.58,7.48,19.9-1.08,3.3-3.7,5.51-6.47,7.46-1.24.88-2.55,1.65-4,2.58,0,3.5-.05,7,0,10.45a146.1,146.1,0,0,1-1.84,25.82c-1.75,11-3.26,22.05-5.89,32.9a162.8,162.8,0,0,1-9.35,28.56,73.61,73.61,0,0,1-7.3,13.13c-.89,1.22-1.58,2.58-2.48,4.09,1,1.15,1.78,2.26,2.73,3.24a129.13,129.13,0,0,0,23,18.67,22.12,22.12,0,0,0,2.16,1.26,4.28,4.28,0,0,0,3.65.08,21.26,21.26,0,0,0,2.56-1.41,85.67,85.67,0,0,1,37.09-11.82,166.73,166.73,0,0,1,30.47.13,28.42,28.42,0,0,1,16.5,7.35c6.19,5.47,8.11,12.47,7,20.43a12.7,12.7,0,0,1-3.78,7.29,40.68,40.68,0,0,1-20.28,11c-9.07,2.11-18,1.17-26.85-1.28A104.57,104.57,0,0,1,836.85,955c-9.76-4.08-19.64-7.91-28.84-13.22-.48-.28-1-.47-1.51-.72a3.55,3.55,0,0,0-4.25.58c-.53.46-1.09.87-1.62,1.32a162.24,162.24,0,0,0-23.12,24.11c-.51.66-1,1.35-1.44,2.05a4.39,4.39,0,0,0-.41,4.38c.75,1.76,1.6,3.48,2.5,5.16a121.29,121.29,0,0,1,10.61,26.7c.58,2.21,1.24,4.4,2,6.57a82.83,82.83,0,0,1,3.66,24.3,45.41,45.41,0,0,1-5.09,22.18c-2.84,5.44-6.92,9.4-12.81,11.32a14.83,14.83,0,0,1-4,.83c-3.61.13-7.16.14-10.59-1.62a18.77,18.77,0,0,1-9.11-9.38,54.79,54.79,0,0,1-3.91-15.34c-.57-4.55-.73-9.16-1.07-13.75a68.83,68.83,0,0,1,.46-12.09c.62-6.1,1.16-12.2,2.73-18.16,1.18-4.44,2.19-8.94,3.58-13.31.9-2.87.26-5-1.48-7.35a162.84,162.84,0,0,0-23.16-25.21c-2.41-2.11-4.9-4.14-7.32-6.24a4.71,4.71,0,0,0-5.43-.74c-1.77.82-3.52,1.69-5.22,2.63a99.56,99.56,0,0,1-22.55,8.73c-8.82,2.31-17.69,1.94-26.5-.09a71.57,71.57,0,0,1-17.15-6.5c-1.11-.58-2.14-1.3-3.23-1.92-4.86-2.76-7-7.39-8.51-12.43a6.29,6.29,0,0,1-.17-2.89c.88-4.29,2.32-8.32,5.84-11.27a28.44,28.44,0,0,1,9.1-5,78.64,78.64,0,0,1,22.08-4.17,122.75,122.75,0,0,1,49.6,7.7,91.32,91.32,0,0,1,9.91,4.43,6.9,6.9,0,0,0,3.53.88,6.82,6.82,0,0,0,3.48-1.23c9.41-6.5,12.21-9,12.21-9a77.15,77.15,0,0,0,6.61-6.81,13.81,13.81,0,0,0,3.21-4.93,5.82,5.82,0,0,0-.8-1.43,27.83,27.83,0,0,1-4.76-6.83c-2.88-5.09-5.91-10.11-8.43-15.38a119.14,119.14,0,0,1-5-13.27,132.49,132.49,0,0,1-4.79-19c-.44-2.47-.69-5-.89-7.47-1.72-22,3-47.35,14.46-66.33,3.23-5.37.44-8-1-11.21-4.41-9.82-6.14-13.79-7.3-24.53-1-9.38-2-19.05-.74-28.34a116.86,116.86,0,0,1,16.39-45.69,94.58,94.58,0,0,1,9.45-12.76,26.94,26.94,0,0,1,9.73-7,47.06,47.06,0,0,1,6.41-1.8c.79-.22,1.57-.49,2.49-.77q3.36-12.74,6.7-25.42a7.52,7.52,0,0,0,.37-3.09c-.2-.75-1.44-.28-2.06-.08a124.67,124.67,0,0,0-20.86,8.46,80.66,80.66,0,0,1-22.27,8.06c-7.77,1.59-15.52,3.32-23.3,4.81-9.26,1.78-22.36.68-27.73-.41s-12.32-2.95-15-3.77a68,68,0,0,1-11.13-4.75c-9.08-5.71-14.26-13.75-14.47-24.78a67.86,67.86,0,0,1,3.2-22.19,46.92,46.92,0,0,1,20.42-26.08,88.4,88.4,0,0,1,23.48-10.69,124.85,124.85,0,0,1,17.52-3.82c6.08-.79,7.7-1.1,11.57-1.47a71.34,71.34,0,0,1,7.52-.2c3.65,0,12.24.57,18.34,1,4.85.37,9.68,1.09,14.5,1.8,8.12,1.21,16.13,3,24.09,5,5.39,1.36,10.73,2.93,16.11,4.36q10.48,2.77,21,5.5c5.78,1.5,11.55,3.08,17.38,4.41A175,175,0,0,0,870,564.17c5,.54,9.91,1.37,14.88,1.91,3,.34,6.11.44,9.17.54a141.34,141.34,0,0,0,35.28-3.21,104.56,104.56,0,0,0,26.91-10.1c5.75-3.11,11.39-6.45,17.08-9.68,1.7-1,3.41-1.89,5.16-2.76.43-.21,1.6-.5,1.73-.17s-.19,1-.38,1.34c-4.9,8-10.67,15.32-18.15,21.14a67,67,0,0,1-16.78,9.25,149.57,149.57,0,0,1-27.38,7.41,139.08,139.08,0,0,1-30.81,2.24c-18.25-.72-36.41-2.45-54.25-6.62q-20.66-4.82-41.33-9.54a332.64,332.64,0,0,0-36-6.14c-8.45-1-16.89-2-25.34-2.91a78.13,78.13,0,0,0-22.49.54c-10.17,1.89-18.72,7-26.39,13.67a46.75,46.75,0,0,0-8,9,30.18,30.18,0,0,0-5.33,20.19c1,10.54,6.32,17.92,15.87,22.3a57.61,57.61,0,0,0,19.35,4.91,86.9,86.9,0,0,0,19.6-.46,163.39,163.39,0,0,0,33.16-8.33,87.49,87.49,0,0,0,8.81-3.74,210.57,210.57,0,0,1,33-13.15,43,43,0,0,1,4.89-1.06C803.56,600.54,805.66,600.8,806.18,601.4ZM764.91,779s-5.68-3.32-5.72-3.28c-.87,1.11-1.58,1.91-2.15,2.8-.75,1.17-1.4,2.4-2,3.63a32.52,32.52,0,0,0-1.84,3.69c-.64,1.69-1,3.46-1.64,5.16a96.16,96.16,0,0,0-5.21,27.41A155.35,155.35,0,0,0,754,874.76a28,28,0,0,0,2.82,6c2.58,4.13,5.4,8.12,8.17,12.12a11.41,11.41,0,0,0,1.84,1.67A26.92,26.92,0,0,0,768.6,892a174.08,174.08,0,0,0,10.63-25.54c3-9,4.76-15.43,5.46-24.61s.66-15.12.63-20.69c-.07-9.33-1.1-17.88-1.13-27.21,0-1.51.29-3.07-.5-4.6C775.37,785.64,773.1,784.25,764.91,779Zm18.21-124.47a13.47,13.47,0,0,0-9,2.65,25.17,25.17,0,0,0-5.82,5.63c-.83,1.26-9.42,17.74-12.95,30.49-4.36,15.77-4.92,31.86-3.87,48.06a79.12,79.12,0,0,0,2.46,16.24c2.78,8.07,3.91,9.1,8.15,7.82.74-.39,2.95-1.8,3.64-2.26,4.92-3.33,8.4-4.19,14.25-5.15a16.59,16.59,0,0,0,2.21-.71c-.1-1.43-.17-2.8-.29-4.17-.21-2.35-.42-4.71-.69-7.06-1-8.85-.75-24.92-.87-25.6s.24-13,.24-13.7c.24-9,.81-11.79,1-23.06.1-4.84.55-11.34.82-14.05a59.92,59.92,0,0,0,.46-7C782.91,660.55,783.11,656.77,783.12,654.52Zm32.09,279.53a6.25,6.25,0,0,0,1.12.94c7.75,3.45,15.42,7.13,23.31,10.22a135.6,135.6,0,0,0,16.79,5,43.26,43.26,0,0,0,19.08.38,28.21,28.21,0,0,0,15.54-8.41c2.71-2.93,2.72-5.2.2-8.45a9.49,9.49,0,0,0-1.71-1.7c-4.4-3.41-9.22-5.91-14.85-6.6s-11-1.47-16.58-2.09a62.46,62.46,0,0,0-14.59.1c-9.28,1.12-17.76,4.56-25.93,8.86A22.16,22.16,0,0,0,815.21,934.05Zm-52.94,59.82a22.42,22.42,0,0,0-1.21,1.89c-5.95,12.56-7.22,25.87-6.26,39.52a4.11,4.11,0,0,0,.08.6,102.83,102.83,0,0,0,5.54,18.58,17.49,17.49,0,0,0,4.81,6.73c4,3.48,8.75,3,12-1.32a15.93,15.93,0,0,0,3-11,64,64,0,0,0-.9-6.61,159.25,159.25,0,0,0-15-44.93C763.74,996.32,763.14,995.39,762.27,993.87Zm32.64-59.49c-1.21-.88-2.07-1.58-3-2.16A171.16,171.16,0,0,1,771,917c-3.64-3.15-4.09-3.09-7.63.21a131.19,131.19,0,0,1-19,14.9,15,15,0,0,0-1.53,1.29,8.1,8.1,0,0,0,.92,1.12,133.93,133.93,0,0,1,22.84,24.25,10.09,10.09,0,0,0,1.66,1.44c.9-1.15,1.64-2.14,2.42-3.09,1.75-2.16,3.44-4.38,5.3-6.44a96.78,96.78,0,0,1,14.85-12.78A15.37,15.37,0,0,0,794.91,934.38ZM709.5,940a16.32,16.32,0,0,0-1.49-1.22,101.29,101.29,0,0,0-22.65-10.55c-6.4-2-12.93-3.32-19.72-2.82a29.14,29.14,0,0,0-11.56,3.25,21.21,21.21,0,0,0-7.34,6.09c-2.61,3.5-2.36,5,1.28,7.47a36.87,36.87,0,0,0,9.49,4.27,106.86,106.86,0,0,0,16.69,3.66,29.73,29.73,0,0,0,8.32.08,65.54,65.54,0,0,0,23.2-7.8C706.91,941.76,708,940.94,709.5,940ZM889.09,654.9a15.55,15.55,0,0,0,1.95,1.22c3.42,1.54,6.86,3.06,10.31,4.53A66.52,66.52,0,0,0,917,665c5.33.87,12.65-1,15.78-8.25a40.46,40.46,0,0,0,1.6-4.73c1.27-4.46-.57-7.93-3.8-10.75a18.77,18.77,0,0,0-11.09-4.29,68.42,68.42,0,0,0-8.35,0,19.89,19.89,0,0,0-9.92,2.85c-5.63,3.47-9.43,8.52-12.13,14.47C889,654.38,889.09,654.54,889.09,654.9ZM864.26,830.23A41.18,41.18,0,0,0,848.41,832a29.07,29.07,0,0,0-16.36,12.28,18.84,18.84,0,0,0-3.12,12.32c.36,4.16,2.82,6.62,6.91,7a14.61,14.61,0,0,0,10-2.12,35.16,35.16,0,0,0,6.15-5c6.77-7.22,10.32-16.06,12.4-25.59C864.43,830.87,864.36,830.73,864.26,830.23Zm-80.49-49.61a131.61,131.61,0,0,0-1-16.58c-6.66.56-12,3.39-17.68,7.4C771.33,774.92,776.88,778.44,783.77,780.62Zm18.05-13.09c-.4,6-.19,10.59.61,13.24a11.56,11.56,0,0,0,5.37-5,3.69,3.69,0,0,0,.05-3.24C807.09,770.39,805,768.63,801.82,767.53Z" transform="translate(-79.25 -71.5)"/><path d="M1053.08,954.67a3.53,3.53,0,0,1-2.59-2.53,20.8,20.8,0,0,1-.92-4.46q-.51-8.92-.79-17.87-.6-20.4-1.08-40.8c-.27-11.24-.42-22.48-.76-33.72-.3-10.12-.78-20.23-1.16-30.35-.14-3.75-.21-7.5-.28-11.24-.13-8.19-.19-16.38-.38-24.57-.27-11.66-.65-23.31-.94-35-.25-10.27-.42-20.54-.69-30.8s-.61-20.53-.89-30.8c-.26-9.71-.45-19.42-.7-29.13-.29-11.66-.62-23.31-.92-35l-.69-26.22c-.27-10.27-.57-20.54-.83-30.8-.22-9.18,0-18.32,1.69-27.38a28.73,28.73,0,0,1,3.31-9.37c4.39-7.47,13-6.62,16.54.43a31.28,31.28,0,0,1,2.67,7.39,100.2,100.2,0,0,1,1.71,11.93c.77,9.14.37,18.3.14,27.45-.18,7.49-.33,15-.54,22.48-.34,12.2-.73,24.41-1.07,36.61-.12,4.58-.16,9.16-.26,13.74q-.45,19.77-.93,39.55c-.3,12.48-.58,25-.91,37.46-.25,8.87-.6,17.75-.85,26.62-.23,8.33-.37,16.65-.58,25-.15,5.68-.36,11.37-.51,17-.2,7.36-.36,14.71-.55,22.07-.22,8-.46,16.09-.67,24.14q-.51,19.77-1,39.54c-.29,11.66-.55,23.31-.85,35-.18,7.36-.35,14.71-.63,22.06a54.31,54.31,0,0,1-.81,6.6A9.17,9.17,0,0,1,1053.08,954.67Z" transform="translate(-79.25 -71.5)"/><path d="M1067,1010.26a22.76,22.76,0,0,1-3.91,12.51,13.57,13.57,0,0,1-9.19,5.88c-3.06.58-5.72-.59-8.2-2.21a15,15,0,0,1-5.93-7.81,21.74,21.74,0,0,1,.53-16.59,15.81,15.81,0,0,1,4.54-5.85c5.15-4.23,11.61-3.88,16.45,1.07A19.72,19.72,0,0,1,1067,1010.26Z" transform="translate(-79.25 -71.5)"/></g></g><g id="Lijnwerk"><path class="cls-3" d="M600.25,307.5v1115c284.43,0,515-231.09,515-516.16V307.5Z" transform="translate(-79.25 -71.5)"/><path class="cls-3" d="M600.25,307.5v1115c-284.43,0-515-231.09-515-516.16V307.5Z" transform="translate(-79.25 -71.5)"/><rect class="cls-3" x="6" y="6" width="1030" height="230"/></g></svg>